# xmcd CD database file
#
# Track frame offsets:
#	150
#	16202
#	34827
#	52246
#	67404
#	85522
#	104102
#	124478
#	139717
#	161512
#	183607
#	203431
#	222592
#
# Disc length: 3509 seconds
#
# Revision: 0
# Processed by: cddbd v1.5.2PL0 Copyright (c) Steve Scherf et al.
# Submitted via: CDex 1.70beta2
#
DISCID=c80db30d
DTITLE=Russel Jackson - Tossin and Turnin
DYEAR=1900
DGENRE=Blues
TTITLE0=Have Mercy
TTITLE1=Dancin Shoes
TTITLE2=Tossin and Turnin
TTITLE3=Show Me The Door
TTITLE4=They Raided The Joint
TTITLE5=Talk Atcha
TTITLE6=Workin With My Baby
TTITLE7=A Woman Needs
TTITLE8=Howlin At The Moon
TTITLE9=Brand New Life
TTITLE10=Becoming The Blues
TTITLE11=Love All Around
TTITLE12=Funky Hideaway
EXTD=
EXTT0=
EXTT1=
EXTT2=
EXTT3=
EXTT4=
EXTT5=
EXTT6=
EXTT7=
EXTT8=
EXTT9=
EXTT10=
EXTT11=
EXTT12=
PLAYORDER=
